<svg width="82" height="19" viewBox="0 0 82 19" fill="none" xmlns="http://www.w3.org/2000/svg">
<path fill-rule="evenodd" clip-rule="evenodd" d="M64.2738 4.14169C65.4646 4.14169 66.3965 3.26158 66.3965 2.07084C66.3965 0.854223 65.4646 0 64.2738 0C63.0831 0 62.1253 0.854223 62.1253 2.07084C62.1253 3.26158 63.0831 4.14169 64.2738 4.14169ZM14.2629 12.3992C14.2629 16.4114 11.8815 19 7.29973 19C2.84741 19 0 16.3856 0 11.6226V7.5327C0 2.92507 2.79564 0.155313 7.29973 0.155313C11.7779 0.155313 14.2629 2.74387 14.2629 6.70436V7.24796H11.2602V6.73025C11.2602 4.42643 9.99183 2.8733 7.29973 2.8733C4.58174 2.8733 3.00272 4.68529 3.00272 7.40327V11.752C3.00272 14.5736 4.52997 16.282 7.29973 16.282C10.1213 16.282 11.2602 14.703 11.2602 12.4251V11.9074H14.2629V12.3992ZM25.7561 16.515C25.2125 17.7057 24.0218 18.8447 21.5886 18.8447C18.8447 18.8447 16.6185 16.9292 16.6185 13.5123V5.87602H19.4659V13.2534C19.4659 15.2466 20.579 16.3597 22.5463 16.3597C24.7725 16.3597 26.0668 14.9619 26.0668 12.5027V5.87602H28.9142V18.6376H26.1185V16.515H25.7561ZM39.5531 19C42.8406 19 45.4809 16.1785 45.4809 12.2439C45.4809 8.30926 42.8406 5.51362 39.5531 5.51362C37.1717 5.51362 36.0327 6.65259 35.3338 7.76567H35.0232V0.517711H32.1758V18.6376H34.9714V16.7221H35.3338C36.0327 17.861 37.1717 19 39.5531 19ZM35.0232 12.2439C35.0232 14.8583 36.5504 16.4632 38.8025 16.4632C41.0027 16.4632 42.6335 14.936 42.6335 12.2439C42.6335 9.55177 41.0027 8.05041 38.8025 8.05041C36.5504 8.05041 35.0232 9.62943 35.0232 12.2439ZM53.7643 19C57.5177 19 60.391 16.2302 60.391 12.2439C60.391 8.25749 57.5177 5.51362 53.7643 5.51362C50.0109 5.51362 47.1376 8.25749 47.1376 12.2439C47.1376 16.2302 50.0109 19 53.7643 19ZM49.985 12.2439C49.985 14.8065 51.5123 16.4373 53.7643 16.4373C56.0163 16.4373 57.5436 14.8065 57.5436 12.2439C57.5436 9.6812 56.0163 8.07629 53.7643 8.07629C51.5123 8.07629 49.985 9.6812 49.985 12.2439ZM65.6975 5.87602V18.6376H62.8501V5.87602H65.6975ZM74.0845 19C76.4659 19 77.6308 17.861 78.3038 16.7221H78.6662V18.6376H81.4619V0.517711H78.6144V7.76567H78.3038C77.6308 6.65259 76.4659 5.51362 74.0845 5.51362C70.8229 5.51362 68.1567 8.30926 68.1567 12.2439C68.1567 16.1785 70.8229 19 74.0845 19ZM71.0041 12.2439C71.0041 14.936 72.6349 16.4632 74.8352 16.4632C77.0872 16.4632 78.6144 14.8583 78.6144 12.2439C78.6144 9.62943 77.0872 8.05041 74.8352 8.05041C72.6349 8.05041 71.0041 9.55177 71.0041 12.2439Z" fill="#202020"/>
</svg>
