<svg width="402" height="130" viewBox="0 0 402 130" fill="none" xmlns="http://www.w3.org/2000/svg">
<g filter="url(#filter0_d_56_385)">
<path d="M54 74.2275C54 60.847 64.3837 50 77.1927 50H346.807C359.616 50 370 60.847 370 74.2275V184.261C363.596 184.261 358.404 189.684 358.404 196.374C358.404 203.065 363.596 208.488 370 208.488V238.773C370 252.153 359.616 263 346.807 263H77.1927C64.3837 263 54 252.153 54 238.773V208.488C60.4045 208.488 65.5963 203.065 65.5963 196.374C65.5963 189.684 60.4045 184.261 54 184.261V74.2275Z" fill="white"/>
</g>
<defs>
<filter id="filter0_d_56_385" x="0" y="0" width="424" height="321" filterUnits="userSpaceOnUse" color-interpolation-filters="sRGB">
<feFlood flood-opacity="0" result="BackgroundImageFix"/>
<feColorMatrix in="SourceAlpha" type="matrix" values="0 0 0 0 0 0 0 0 0 0 0 0 0 0 0 0 0 0 127 0" result="hardAlpha"/>
<feOffset dy="4"/>
<feGaussianBlur stdDeviation="27"/>
<feColorMatrix type="matrix" values="0 0 0 0 0 0 0 0 0 0 0 0 0 0 0 0 0 0 0.05 0"/>
<feBlend mode="normal" in2="BackgroundImageFix" result="effect1_dropShadow_56_385"/>
<feBlend mode="normal" in="SourceGraphic" in2="effect1_dropShadow_56_385" result="shape"/>
</filter>
</defs>
</svg>
